<svg width="1920" height="1080" viewBox="0 0 1920 1080" fill="none" xmlns="http://www.w3.org/2000/svg">
    <path d="M1920 0H0V1080H1920V0Z" fill="url(#paint0_linear)" />
    <path opacity="0.34"
        d="M937.2 560.2C1076.43 560.2 1189.3 447.331 1189.3 308.1C1189.3 168.869 1076.43 56 937.2 56C797.969 56 685.1 168.869 685.1 308.1C685.1 447.331 797.969 560.2 937.2 560.2Z"
        fill="#FCF5F1" />
    <path opacity="0.2"
        d="M936.4 594.6C1094.63 594.6 1222.9 466.33 1222.9 308.1C1222.9 149.87 1094.63 21.6 936.4 21.6C778.171 21.6 649.9 149.87 649.9 308.1C649.9 466.33 778.171 594.6 936.4 594.6Z"
        fill="#FCF5F1" />
    <path opacity="0.15"
        d="M1262.2 308.1C1262.26 380.567 1238.13 450.981 1193.64 508.185C1149.16 565.389 1086.85 606.112 1016.6 623.9C990.386 630.55 963.445 633.909 936.4 633.9C919.493 633.871 902.612 632.568 885.9 630C809.195 617.941 739.319 578.883 688.863 519.864C638.407 460.846 610.687 385.747 610.7 308.1C610.7 166.4 701.2 45.8 827.6 1H1045.3C1171.7 45.8 1262.2 166.4 1262.2 308.1Z"
        fill="#FCF5F1" />
    <path opacity="0.09"
        d="M1309.7 308.1C1309.78 383.835 1286.75 457.791 1243.7 520.1C1217.04 558.612 1183.43 591.813 1144.6 618C1088.43 655.796 1023.04 677.598 955.434 681.07C887.825 684.542 820.545 669.553 760.803 637.709C701.061 605.865 651.109 558.367 616.3 500.303C581.49 442.239 563.135 375.799 563.2 308.1C563.2 180.8 626.9 68.4 724.2 1H1148.6C1246 68.4 1309.7 180.8 1309.7 308.1Z"
        fill="#FCF5F1" />
    <path opacity="0.05"
        d="M1350.8 308.1C1350.87 360.919 1340.83 413.263 1321.2 462.3C1317.6 471.4 1313.6 480.3 1309.4 489C1286.31 536.53 1254.34 579.199 1215.2 614.7C1211.5 618.1 1207.7 621.4 1203.9 624.6C1198.5 629.133 1193 633.533 1187.4 637.8L1181.7 642.1H1181.6L1172.1 648.9C1165.4 653.5 1158.6 658 1151.7 662.2C1080.81 705.226 998.659 726.013 915.841 721.877C833.023 717.742 753.346 688.873 687.1 639C635.779 600.427 594.142 550.436 565.486 492.985C536.83 435.534 521.942 372.201 522 308C522 186.3 574.6 76.8 658.2 1H1214.7C1257.62 39.8092 1291.91 87.1982 1315.36 140.1C1338.8 193.001 1350.88 250.236 1350.8 308.1Z"
        fill="#FCF5F1" />
    <path
        d="M937.2 528.5C1058.1 528.5 1156.1 430.495 1156.1 309.6C1156.1 188.705 1058.1 90.7 937.2 90.7C816.305 90.7 718.3 188.705 718.3 309.6C718.3 430.495 816.305 528.5 937.2 528.5Z"
        fill="#FCF5F1" />
    <path
        d="M650.3 143C651.405 143 652.3 142.105 652.3 141C652.3 139.895 651.405 139 650.3 139C649.195 139 648.3 139.895 648.3 141C648.3 142.105 649.195 143 650.3 143Z"
        fill="white" />
    <path
        d="M1363.1 221.9C1364.2 221.9 1365.1 221.005 1365.1 219.9C1365.1 218.795 1364.2 217.9 1363.1 217.9C1362 217.9 1361.1 218.795 1361.1 219.9C1361.1 221.005 1362 221.9 1363.1 221.9Z"
        fill="white" />
    <path
        d="M1270.2 271.9C1271.3 271.9 1272.2 271.005 1272.2 269.9C1272.2 268.795 1271.3 267.9 1270.2 267.9C1269.1 267.9 1268.2 268.795 1268.2 269.9C1268.2 271.005 1269.1 271.9 1270.2 271.9Z"
        fill="white" />
    <path
        d="M1217.3 127.7C1218.4 127.7 1219.3 126.805 1219.3 125.7C1219.3 124.595 1218.4 123.7 1217.3 123.7C1216.2 123.7 1215.3 124.595 1215.3 125.7C1215.3 126.805 1216.2 127.7 1217.3 127.7Z"
        fill="white" />
    <path opacity="0.15"
        d="M1920 228.1V538.1L1226.7 542.1L1013.2 543.3V523.5C1013.2 523.5 1211.4 314.6 1318.2 386.3C1333.6 396.6 1350.3 404.2 1368 409.6C1430.6 428.6 1503.7 419.1 1559.6 401.6C1597.2 389.8 1627.2 374.4 1641 361.7C1690.9 315.8 1870.4 216.8 1882.2 221C1891.7 224.3 1905.2 227.8 1920 228.1Z"
        fill="white" />
    <path opacity="0.2"
        d="M1920 284.6V543.3H1226.7V523.5C1226.7 523.5 1292.1 454.6 1368 409.5C1424.3 376.1 1486.3 355.7 1531.7 386.2C1540.6 392.1 1549.9 397.2 1559.6 401.4C1666.7 448.2 1817.6 395.4 1854.5 361.5C1876.9 341 1900.1 311 1920 284.6Z"
        fill="white" />
    <path opacity="0.15"
        d="M669.4 552V571.8H0V344C13.5 360.9 27.8 377.3 41.6 390C53.1 400.6 75.9 413.1 105 423.8C138.7 436.2 180.9 446.1 224 448C273.3 450.2 323.8 441.9 364.4 414.7C471.2 343.1 669.4 552 669.4 552Z"
        fill="white" />
    <path
        d="M723.2 561.4L733.6 554.9L736.8 556.8L739.2 554.1H742.4L743.2 551.6H745.1L749.2 550.2H751.2L754.1 546.1L757.3 546.9L759.5 543.2L761.7 544.4L764.7 542L766.6 543L769.6 540.3L773 541.1L773.8 540.3H777.5L779.2 538.4L784.3 540.3L786.8 538.4H791.7L794.6 536.9L798.5 537.7L801.9 536.2H805.3C805.3 536.2 808.5 532.8 809.4 532.8C810.2 532.8 812.1 534 812.3 533.5C812.5 533 815.5 528.2 815.5 528.2L817.4 527.4L819.8 524.9H822L826.9 522.5L834 523.2L841.5 521.7C841.5 521.7 844.7 523.1 845.2 522.7C845.7 522.4 853.3 517.8 853.3 517.8L858.7 519.2L866.8 514.6L873.6 514.9L876.8 513.4L883.9 512.4L890.8 508.7H896.9L904.4 505.5L912.9 503.6L918.2 504.4L933.8 500.8L944.8 496.7C944.8 496.7 960.4 493.7 964.5 493.7C968.6 493.7 989.7 491 989.7 491L999.2 494.7L1009.5 498.8L1027.6 503.5L1046.9 507.6L1053.7 515.2L1079.3 526.2L1099.8 535.9L1117.3 541.7L1132.4 550.5L1153.4 556.4L1170.7 567.1L1180.4 574.2L1197.7 582.5L1293.8 680.6L1270.4 786.8L1044.2 822.4L707.7 788.3L617.7 631.2L723.2 561.4Z"
        fill="#EE5395" />
    <path opacity="0.2"
        d="M889.7 636.2H687.4L685.2 636.1L672.3 635.5L618.8 633L614.4 632.8L533.8 629L416 623.5L287.5 602.7L236.5 594.4L189.3 586.8L96.6 571.8L87.5 570.3L0 556.2V257C26.4 283.5 62.6 316 111.9 354.1C263.4 471 379.7 376.2 379.7 376.2C411.2 343.7 470.2 376.2 470.2 376.2C494.5 391 516.8 404.7 537.5 417.4C557.6 429.8 576 441.3 592.9 451.8C601.6 457.2 609.8 462.4 617.7 467.4C625.5 472.3 632.8 477 639.8 481.4C655 491 668.3 499.7 680.1 507.3C714.3 529.5 735 543.6 745.8 551.1C752.5 555.7 755.4 557.9 755.4 557.9L783.1 594.2L789.4 602.5L870.1 629.7L886.5 635.2L889.7 636.2Z"
        fill="white" />
    <path
        d="M332.8 530.6L343.2 524.1L346.4 526L348.8 523.3H352L352.8 520.8H354.7L358.8 519.4H360.8L363.7 515.3L366.9 516.1L369.1 512.4L371.3 513.6L374.3 511.2L376.2 512.2L379.2 509.5L382.6 510.3L383.4 509.5H387.1L388.8 507.6L393.9 509.5L396.4 507.6H401.3L404.2 506.1L408.1 506.9L411.5 505.4H414.9C414.9 505.4 418.1 502 419 502C419.9 502 421.7 503.2 421.9 502.7C422.1 502.2 425.1 497.4 425.1 497.4L427 496.6L429.4 494.1H431.6L436.5 491.7L443.6 492.4L451.1 490.9C451.1 490.9 454.3 492.3 454.8 491.9C455.3 491.6 462.9 487 462.9 487L468.3 488.4L476.4 483.8L483.2 484.1L486.4 482.6L493.5 481.6L500.4 477.9H506.5L514 474.7L522.5 472.8L527.8 473.6L543.4 470L554.4 465.9C554.4 465.9 570 462.9 574.1 462.9C578.2 462.9 599.3 460.2 599.3 460.2L608.8 463.9L619.1 468L637.2 472.7L656.5 476.8L663.3 484.4L688.9 495.4L709.4 505.1L726.9 510.9L742 519.7L763 525.6L780.3 536.3L790 543.4L807.3 551.7L903.4 649.8L880 756.1L653.8 791.7L317.3 757.6L227.3 600.5L332.8 530.6Z"
        fill="#EF2B81" />
    <path
        d="M1920 434V671.4L1904.4 666.3L1786.4 627.3L1786.1 627.2L1778.3 624.6L1777.2 624.2L1768.7 617.9L1754.1 607L1718.1 580.2L1710.4 574.4L1714.2 548.7L1716.7 546L1719.3 543.4L1723.2 539.3L1729.1 533.1L1732.8 535.5L1734.6 533.9L1745 524.9L1754.1 517.1L1762.6 509.7L1768.8 508.4L1774.9 507.1L1779.7 503.6L1786.1 498.8L1787.3 497.9L1787.6 497.7L1826.2 481.6L1838.7 476.4L1897 440.8L1901.7 437.9L1920 434Z"
        fill="#ED5093" />
    <path
        d="M1920 667.1V738.7L1916.3 737.1L1839.9 705.1L1786.1 682.5L1770.1 675.8L1768.6 675.1L1754.1 669L1710.4 650.7L1664.1 631.3L1659.4 629.3L1649.6 625.2H1238.9L1200.3 626.3L1072.4 629.9L731.1 639.7L735.8 635.9L753.4 621.9L763.6 617.3L771.7 612.7L779.4 608L789.5 602.5L798.2 599H810.4L815 594.5H820.5L823.1 590.9L826.1 594.5L828.7 591.4L835.3 594.5L839.3 590.3L844.4 586.3L850.5 588.3L856.6 583.2L866.8 579.7L881.5 578.7L887 573.1L903.9 571.5L911 566.5L919.2 565.5L929.8 560.9L936.4 562.9L950.7 554.8H964.4L986.3 548.2L1004.5 543.1L1011.9 538.5L1013.2 538.4L1019.8 538L1024.1 533.9H1032L1041.2 532.9L1045.8 529.8L1050.3 529.9L1062.5 527.1L1236.3 474L1267.3 465.8L1296.8 459.7H1296.9L1297.4 459.6L1301.9 458.7L1325.8 455.1H1356.3L1371.6 458.2L1393.4 464.8H1427.5L1436.7 470.4L1453.5 471.5L1454.9 471.6L1477.3 476.5L1496.6 481.6H1547.4L1567.6 495.7L1597.8 501.9L1637.4 511.1L1664.1 518.8L1677.6 522.8L1692.6 528.3L1698.4 530.4L1708.1 539.3L1712.4 543.4L1713.2 544.1L1716.7 546L1734.5 555.3L1734.6 555.4L1739.1 559.9L1746.2 567L1754.1 572.5L1768.7 582.6L1769.6 583.2L1780 589L1786.1 592.5L1786.7 592.8L1911.2 662.2L1920 667.1Z"
        fill="#E81A7D" />
    <path
        d="M1893.7 1022.1L1875.3 1080H1300H1296H1305H1299.9H1063H1061.8L1024.7 1081.4L1024.2 1080H643.1L529.7 1030.9H529.6L529 1030.6L526.8 1029.6L430.6 988L429.9 987.7L429.8 987.6L428.1 982.5L393.3 882.9L379.8 844L383.5 784.9L384.8 764.4L387.4 723.7L389.8 686.5L392 651.8L533.5 645.3L616.7 641.4L622.5 641.2L622.9 641.1H623.4L679.1 638.5L687.8 638.1L729 636.2L735.8 635.9L758.4 634.9L791 633.4L870.3 629.7L883.1 629.1L886.6 629L967.7 625.2L1017.3 622.9L1086.9 619.7L1145.3 617L1184.9 615.2L1215.9 613.7L1225.8 613.3L1227.8 613.2L1230.7 613L1332.3 608.3L1340.3 608L1349.4 610.9L1394.8 625.2L1505.3 660.1L1664.1 710.3L1672.7 713L1677.6 714.5L1683.4 716.3L1697.1 720.7L1754.1 738.7L1759.8 740.5L1773.8 744.9L1783.6 748L1786.1 748.8L1793.6 751.2L1812.2 757L1826.1 802.2L1829.9 814.7L1833.8 827.3L1856.9 902.4L1858.4 907.5L1893.7 1022.1Z"
        fill="#F6B4D1" />
    <path d="M1243.6 647.3L680.5 666.3L797.7 764.2L1309.5 764.5L1243.6 647.3Z" fill="#F8CBDF" />
    <path d="M1318.6 807.9L755.5 827L872.6 924.8L1384.5 925.2L1318.6 807.9Z" fill="#F8CBDF" />
    <path opacity="0.11"
        d="M959.2 635.4C959.2 635.4 988.5 598.2 993.9 606.5C993.9 606.5 1000.5 598.4 1007.4 597.6C1007.4 597.6 1026.3 580.2 1045.6 587.4L1065.5 588.7L1082.6 569L1088.8 568.7L1097 560.5L1103.2 560.2C1103.2 560.2 1121.6 541.4 1137.2 547.8C1137.2 547.8 1142.6 541.7 1148.5 542.9C1148.5 542.9 1154.9 532 1160.4 533.6C1160.4 533.6 1178.8 504.2 1204.9 516.6C1205.6 516.9 1206.2 517.3 1206.9 517.6C1234.1 532.5 1230.9 641.6 1230.9 641.6L1034 645L992.9 646.7L959.2 635.4Z"
        fill="#F7D4CB" />
    <path opacity="0.09"
        d="M805.3 649.9C805.3 649.9 776 612.7 770.6 621C770.6 621 764 612.9 757.1 612.1C757.1 612.1 738.2 594.7 718.9 601.9L699 603.2L681.9 583.5L675.7 583.2L667.5 575L661.3 574.7C661.3 574.7 642.9 555.9 627.3 562.3C627.3 562.3 621.9 556.2 616 557.4C616 557.4 609.6 546.5 604.1 548.1C604.1 548.1 585.7 518.7 559.6 531.1C558.9 531.4 558.3 531.8 557.6 532.1C530.4 547 533.6 656.1 533.6 656.1L730.5 659.5L771.6 661.2L805.3 649.9Z"
        fill="#F7D4CB" />
    <path
        d="M294.6 505.5C295.2 505.8 302.8 498.6 302.8 498.6L304.8 500.4L308.1 495.1L311.1 497.1L325.3 488.2L337 482.6L375.4 466.3L377.3 468.4L378.2 469.3L386.1 472.6L393.2 478.2L406.9 487.1L412.7 494L414.6 495.2L416.3 497.8L422.7 502.6L431.3 506.9L435.9 508.7L440 514L443.3 515.6L497.7 539.4L522.6 560.2L550 572.4L588.6 603.9L598.8 611.3L600.1 606.9L603.5 610.1L610 606.9L631.6 617.9L636.6 622.8H641.7L650.5 629.7C650.5 629.7 652.7 629.9 653.5 629.7C654.3 629.5 659.8 629.2 659.8 629.2L667.3 627.7L672.4 635.7L681 639.1H692.2L696.4 646H704.7L712.5 648.7L720.6 651.2C720.6 651.2 726.7 649.2 727.2 649.2C727.7 649.2 731.8 654.1 731.8 654.1L735.5 657.7L746 657.4L748.6 661.3L751.7 664.7L758.3 664.2L764.6 663.5L767.7 667.9L773.3 670.2L778.8 669.6L787.9 676.2L793.4 678.3L804.8 684.4L816.2 687L824.3 690L828.4 693.4H840.3C840.3 693.4 854.9 699.8 859.1 706.4L860.2 708C860.2 708 856.4 711.6 830.5 711.6H803.1L791.7 713.1L782.8 715.4L798.3 723.3L812.3 737.3L822.2 745.9L833.6 754.3L841.5 764.5L850.6 775.7C850.6 775.7 836.1 796.2 828.5 799.3L775.3 814L699.1 820.1L613.2 831.8L463.8 814.5L255 737.4L172.3 599.8L247.5 542.2L269.2 538.8L280 518.5L287 508L293.1 508.8L294.6 505.5Z"
        fill="#E91B66" />
    <path
        d="M1091.9 1080H1062.9H1061.8L1024.7 1081.3L1024.2 1079.9H0V470.6L3.2 468.4L5.2 471.7L6.9 463.7H27.6L38.1 461.7L46.2 450.2L51.3 451.5V443.7H58.1L60.6 438.3L62.2 434.9L68.3 431.5L70.3 427.4L77.1 429.8L79.8 427.4H87.9L90.1 426.3L92 427.4L94.5 425.1L96.6 426.8L97.3 424.3L97.8 426L99 423.8V426.2L100.7 423.8L101.5 425.8L102.3 423.8L103.1 425.7L105.1 423.9L124 406.9L126.8 408.9C126.8 408.9 148.7 399.5 158.6 392.1L162.9 406.6L166.2 406.9L168.2 421.4L173.3 416.8L172.8 422.4L176.4 418.9L175.9 424.5L189.9 417.9L193 426H204.4L208.2 432.1L216.1 435V440.3L219.4 444.9L224.2 443.4V450.8L228.3 459.2L231.9 463.8L240 466.8L241.5 469.5L242.8 471.8L248.2 472.6L251.2 473.1L252.3 474.5L255.6 478.9H264L265 480.5L274.1 494.4L284.4 499.3L294.9 505.6L300.3 508.8L302.3 517.6V531.5L313.8 522.3L321.6 518.6L328.7 524.7L327.3 533.2L331 532.1L336.1 530.5L341.5 535.3L349.6 533.9L354.7 542.7L363.5 548.1L372.6 550.5L379.4 547.5L394 538.3L410.4 533.8L443.5 515.8L453.9 510.1L463.8 510.6L476.3 504.5L480.6 508.8L483.9 507.5L486.7 504.2L493 504.7C493 504.7 494.3 508.3 495 508.3C495.8 508.3 499.3 507.8 499.3 507.8V510.3H505.7L510.5 515.6L517.9 521.7L525 530.6L532.6 538.5L539.7 548.4L543.1 555.3L544.3 557.8H550.1L549.1 564.2L554.7 562.2V568.3L560.3 570.1V575.7H565.1L567.4 583.3L572.5 587.1V590.7L580.1 596.3L582 598.7L585.2 602.7L588.8 604.2L590.8 610.3L596.6 612.8L599.9 619.4L608 623.2L610.5 629.8L614.2 632.9L616.6 634.9V646L622.4 641.1L622.7 640.9L622.8 641.1L627.5 648.8L628.9 651V651.1V651.2L629.2 651.6H632.5L639.4 654.4L640.4 657.8L641.1 660.2L645.9 657.8L649.4 656.1L651.2 657.9L663.1 669.6L670.2 666.6L674.5 669.6L680.1 666.3L685.9 676.2L696.8 680.3L698.1 680.8L698.2 681.5L699.4 688.4H708.3L709.4 690.8L712.6 697.6C712.6 697.6 716 698.1 718.6 698.5C720 698.7 721.3 698.9 721.5 698.9C721.9 698.9 723.8 701.7 725.4 704.2C726.6 706.1 727.6 707.8 727.6 707.8L732.1 709.8L735 711.1L735.7 712.8L737.5 717.2H740.8L747.7 733L755.8 731.2V744.7L766 746.5C766 746.5 769.1 754.6 769.8 754.6C770.6 754.6 776.9 751 776.9 751L780.7 758.4L788.8 759.9V768H796.7L797.5 769L803.6 776.9V771.8L806.4 779.9L812 783L814.5 789.1L821.9 791.9V798.8L825.4 800.3L828.5 801.6L833 808.1L838 812.6L842.7 820.8L846.6 823.8L847.9 824.8L851.1 831.8L857.2 832.8L860.2 838.6L866.3 842.2L869.3 849.4L873.6 851.1L878.4 854.4L900.3 870.9L918.6 883.1L939.9 913.6L954.5 924.8L975.5 941L989.9 950.7L1019.2 970.5L1040.6 991.9C1040.6 991.9 1064 1011.2 1066 1014.3C1068 1017.3 1087.3 1071.7 1087.3 1071.7L1091.9 1080Z"
        fill="#D21E5B" />
    <path opacity="0.15"
        d="M967 1003.9C962.3 1010.5 956.6 1017.3 950.5 1023.9C928.9 1047.8 903.3 1069.6 903.3 1069.6L829.6 1061.9L685.1 1046.9L529.5 1030.8L528.4 1030.7L526.6 1030.5L495.8 1027.3L430.6 988L429.9 987.6L421.5 982.5L331.7 928.5L323.6 923.6L308.9 914.7L278.8 896.6L275.1 894.4L270.3 891.5L0 728.9V557.5C13 561.9 30.7 566.6 54.7 571.4C55.5 571.6 56.4 571.7 57.3 571.8C62.5 572.5 68.6 572.4 75.5 571.8C79.3 571.5 83.4 571 87.6 570.3C126.8 564.5 181.8 548.8 224 560.3C233.1 562.8 241.6 566.5 249.2 571.8C252.7 574.3 256.1 576.8 259.5 579.3C269.7 587 279 594.9 287.6 602.7C331.2 642.4 355.9 679.9 389.9 686.4C432.7 694.7 595.9 661.9 680.6 753.5C686.9 760.3 693 766.6 698.8 772.5C702.4 776.1 705.9 779.6 709.3 782.9C711.5 785 713.7 787.1 715.8 789.1C727.4 800 737.8 808.9 747.1 816.2C752.1 820.2 756.8 823.7 761.2 826.7C791.1 847.7 805.5 849.2 805.5 849.2C805.5 849.2 847.7 891.6 892.5 924.7C916.8 942.6 941.8 957.8 961.2 962.1C962.7 962.4 964.2 962.7 965.6 962.9C987.2 966.1 981.6 983.8 967 1003.9Z"
        fill="#DB6BA8" />
    <path
        d="M1024.2 1080H0V620.1L7.3 621.3L25.7 607.2H28.5L38.4 595.9V594.5L39.8 595.9H46.9L49.7 597.3C49.7 597.3 70.9 611.4 75.1 617.1L80.8 622.7L83.6 628.3L87.8 631.1L94.9 635.3L100.5 636.7H101.9L106.6 632.1L106.2 641L112.1 630.9L110.4 642.4L114.1 636.3L113.4 644.4L120 647.8L124.8 652L131.7 656.8L137.8 663.9L144.3 664.7V668.6H147.5L148.5 671.5H153.5V674L158.1 674.5L158.9 677.7L167.8 672.4L171.1 682.5C171.1 682.5 174.8 684.9 177.1 683.3L185.1 678.3L186.8 687.1L201 691L204.5 692.8C204.5 692.8 210.6 687.1 213.4 686.3C213.4 686.3 214.4 688.4 215.8 694.1C217.2 699.8 218.9 694.8 218.9 694.8L226 690.6L228.2 692.9L232 696.8L235.2 692.1L236.8 691C236.8 691 238.1 690.1 238.8 689.3L241.7 696.8V700.4L249.1 698.4V703.3H251.6L253.1 701.3L257.2 701.5V704.7H265V707.9H269.4L274.7 700.3V709.5H284.4L285.2 715.1L289.3 715.8V719.9L292.9 720.7H295.1L295.4 719.3L295.5 719L297.3 717.8L299.7 714.6L301.4 718.7L302.6 721L304.6 724.5H313.1L319.5 729.8L324.9 734.6L330.5 735.6L333.7 732.6L339.5 729.7L345.1 736.5L365.7 724L370.6 728.2L385.4 722.3L387.6 724.1L391.7 727.4H403L405.2 731.7L415.4 733.4L423.3 741.2L432.7 750.8H437.7L448.8 746.4L462.6 759.7L479.3 754.9L490.7 765.1V766.5L504 768.9L505.1 771.8H513.8L519.8 771.1L525.3 775.4L526 779L527.2 784.6L533.6 785.5L534.2 791.5L541.2 793.1L543 797.6L547.6 798.1L549.4 803.7L551.9 807C551.9 807 560.5 808.1 561.8 807C563.2 805.9 563.5 803.9 563.5 803.9L573.5 802.8L578.2 797.3L582.8 801.4L599 786.4L600 785.5L610.3 784.2L613.8 778.8L618.6 785.1L622.5 784.8L624.9 788.9C624.9 788.9 626.1 786 631.5 783.5C636.9 781 644.4 783.2 644.4 783.2C644.4 783.2 645.6 785.2 645.2 786.8C644.9 788.3 650.6 787 650.6 787L656.5 780.9L662.1 785L666.8 787.7L669.3 784.5L676.6 781.5L678.5 788.5L679.1 790.8L681.3 795.6L685.2 798.5L692.3 797.6L698.1 800.5L698.9 806.4L701.1 811.2L705 812.7L706.2 817.3L712.1 816.4L717.7 811.8V817.2H721.8L727.6 816.6L728.1 818.5L729.6 824.9L736.2 826.3L741.7 825.5L743.8 838.2L752.4 839.6L750.2 851.6L756.3 853L764 849.2L769.7 853V858.1L773.3 860.5L778.3 858L783.1 867.5L788 871.6L792.6 868.4L794.8 877.2L798.9 876.3L801.7 877.9L800.6 887.8L805 891L809.4 898.8H817.5L821.2 906.6L829 908L850.7 924.9L924.5 978.1L932.5 983.9L967.2 1005L1005.2 1028.1L1020.1 1069.4L1024.2 1080Z"
        fill="#9A1B46" />
    <path
        d="M1920 741.9V857.2L1886.5 845.6L1859.2 836.1L1833.8 827.3L1828.7 825.5L1812.9 820L1795.3 813.9L1709 783.9L1664.1 768.3L1543.9 726.6L1438.2 693.3L1350.2 665.6L1306.1 656.2L1231.5 640.2L1185.3 641.5L1153.1 638.1H1092.8L1062.5 636.9L1072.4 629.9L1086.9 619.6L1103.5 607.9H1112.3L1115 600.4L1123.9 605.1L1128.7 597.3L1130.6 596.6L1131.2 595.3L1133.4 594.5L1134.7 591.8L1137.2 591.2L1138.9 588.7L1141.2 587.9L1142.8 585.4L1145 584.7L1146.8 582.1H1150.9L1153.3 576.6H1157.7L1162.6 572.4H1166.8L1172.7 562.1L1178.3 563.8L1183.9 555.5C1183.9 555.5 1186.1 555.2 1186.6 555.5C1187.1 555.8 1194.1 549.2 1194.1 549.2H1200L1203.7 542.4L1204.1 542.1L1209.5 537.8L1211.7 534.4L1219.3 533L1223 529.1L1226.7 527.4L1227.2 527.2L1230.4 523.6L1239.2 522.8L1246 517.5L1255.6 511.1L1258.8 512.3L1264.2 508.2L1269.3 505L1276 499.9L1282.4 498.9L1288.1 494.7L1295.1 494L1299.5 491.1L1306 487.6H1310.8L1314.2 486.5L1321 485.9L1331.9 483.5L1337.5 481.8L1339.9 477.9L1353.1 476.4L1362.1 473.5L1368.7 475.4L1374 479.9L1382.9 479.4L1390.5 482.6L1398.4 484L1403.7 488.1L1410.4 490.9L1412.4 492.2L1444.1 505.5L1523.9 530L1539.9 540L1544.8 543L1564 554.9L1607.2 570.7L1640.8 585.4L1652.6 591.1L1658.6 594L1663.8 596.6L1674.7 602.1L1680 598.9L1698.8 600.8L1700.6 602.9L1704.9 607.8L1711.8 609.8L1715.4 616.2L1724.2 617.9L1729.3 621.6L1738.1 623.3L1744.5 627.5L1752.6 631.2L1753.7 632.1L1756.5 634.3L1765.8 639.2L1768.3 641.1L1772.5 644.3L1774.7 644.9L1779.6 646.3L1785.8 649.4L1786 649.5L1786.7 649.9L1796.9 653.3L1814.4 667.2L1856.1 694.8L1912.7 732.3L1916.1 736.8L1920 741.9Z"
        fill="#E91B66" />
    <path opacity="0.09"
        d="M1160.6 649.1C1160.6 649.1 1212 549.5 1293.8 584C1375.6 618.5 1339.9 668.2 1339.9 668.2L1160.6 649.1Z"
        fill="white" />
    <path
        d="M1920 838.1V1080.6L1874.9 1081.3L1875.3 1080H1300H1305H1296H1299.9L1304.3 1027.4L1308.4 978.9L1309.5 965.5L1295.8 935.1L1291.3 925.1L1271.9 882.1L1233.3 852.6C1234.1 852.8 1254.6 857.9 1265.4 859.5C1269.1 860.1 1271.6 860.2 1271.8 859.7C1272.2 858.8 1269 847.2 1265.3 834.4C1263.7 829 1262 823.3 1260.5 818.1C1259.6 815.2 1258.8 812.4 1258 809.9C1255.8 802.7 1254.3 797.7 1254.3 797.7C1252.4 795 1250.7 792.5 1249 790.1C1246.1 786 1243.3 782.5 1240.3 780.4C1234.8 776.7 1232.4 775.9 1225 772.9C1219.6 770.7 1212.2 767 1207 764.4H1206.9C1203.5 762.7 1201.1 761.4 1201.1 761.4L1204.2 753.5L1205.4 750.5L1217.3 741.2L1194.7 730.9C1185.2 728.5 1173.4 722.1 1173.4 722.1L1189.5 710.1L1197.9 706.5L1212 703.6L1223.9 702.2L1235.2 700.9C1237.4 701.7 1246.1 696.7 1246.1 696.7C1246.1 696.7 1243.2 690.4 1238 685.3C1232.8 680.2 1218.7 674.8 1218.7 674.8L1205.8 672.1C1205.8 672.1 1188.9 668.9 1178 668C1170.8 667.4 1159.3 663.6 1152.5 661.2C1149.1 660 1146.8 659.1 1146.8 659.1L1157.3 654.7C1157.3 654.7 1157.3 654.7 1168.6 649.8C1168.7 649.8 1168.7 649.8 1168.8 649.7C1170 649.2 1171.4 648.6 1172.9 647.9C1173 647.9 1173.1 647.8 1173.2 647.8C1176.6 646.3 1181.7 643.5 1184.1 642.2C1185 641.7 1185.5 641.4 1185.5 641.4L1188.2 636.8L1189.2 635.1L1200.5 626.1L1202.4 624.6L1204.7 623.5L1216.4 618L1225.8 613.1L1227.2 612.4L1230.7 610.6L1231.5 610.2L1241 604.1L1253.5 594.3L1262 583.1L1269.6 577.2L1272.5 575L1284 568.2L1294.5 562.3L1307.6 554.2L1321.8 551L1326 545.9L1332.4 543.3L1336.9 541.4H1337L1338.9 540.6L1353.8 532.8L1364.5 525L1373.3 519.4L1386.4 510.9L1398.8 504.3L1409.1 496.5L1412.6 492.4L1418.6 485.5L1433.2 472.4L1436.5 470.4L1436.8 470.2L1446.7 464.1L1452.3 461.1L1458.5 455.7L1460 452.6L1460.2 452.1L1464.1 452.3L1465.5 447.7L1471.4 447.9L1472.9 447.6L1477.1 444L1478.5 442L1481.2 438.2L1486.8 434.1L1489.7 429L1493.4 428.8L1497.3 425.4L1499 422.4L1500.5 424.1L1504.6 422.1L1506 420.7L1507.7 422.1L1508.9 420.7L1521.7 438.9L1525.1 443.8L1537.4 458.3L1539.6 460.9L1544.7 466.9L1567.6 495.6L1584.7 517.1L1602.1 539.9L1604.7 543.3L1613.1 554.4L1642.2 580.2L1653.9 590.3L1658.7 594.5L1663.5 598.6L1663.9 599L1676.7 610.1L1677.1 610.6L1696.9 634.6L1710.2 650.7L1713 654.1L1736.4 679.9H1740.8L1744.5 688.4L1750.6 689.8L1752.3 693.2H1757.7V703.7L1764.1 709.5L1764.4 710.2L1769.1 720.3L1777.9 723.2L1779.2 723.6L1782.6 729.7L1785.7 732.9L1788.6 735.8L1790.3 737.5L1793.5 740L1884 810.5L1920 838.1Z"
        fill="#D21E5B" />
    <path d="M1112.8 727.8L1121.8 721.8H1130.4L1137.1 715.2H1143.3L1160.6 726.2L1112.8 727.8Z" fill="#E91B67" />
    <path d="M860.4 776.1L869 769.3L878.5 768.3L885.8 773.3L878.3 776.9H866.8L860.4 776.1Z" fill="#E91B66" />
    <path
        d="M1061.8 1080L1024.7 1081.3L1024.2 1079.9H0V692.5L5.5 707.4L12 681L21.5 732.2L57.8 745.6L72.1 695L82.1 745.7L101 681L113.4 739.7L135.3 743.2L155.7 767.6L161.2 744.7L170.7 792.5L193.1 712.4L207.5 778.5L220.9 740.7L234.3 800.9L254.2 804.4L276.1 827.3L279.6 803.9L291 847.7L308.4 833.8L342.2 832.3L362.1 850.2L369.1 803.9L390.5 890L393.4 882.9L402 861.6L410.5 921.8L424.9 910.8C424.9 910.8 432.9 925.7 433.4 927.2C433.9 928.7 437.9 949.6 437.9 949.6L447.9 898.4L460.8 945.2L473.7 929.3L491.6 949.7H500.1L508.1 919.4L522.6 957.8L541.7 877.5L556.1 986L584.5 975.6L605.4 1024.9L606.4 1027.3L617.3 1029.8L619.6 1024.1L630.2 998L648.1 1027.8L693.9 1010.4L718.8 1004.9L736.2 994L757.1 993.5C757.1 993.5 775 983.1 777 983.1C779 983.1 810.3 986.1 810.3 986.1L832.2 981.6C832.2 981.6 866.2 979.3 906 995.9C915 999.7 924.3 1004.4 933.6 1010.4C933.6 1010.4 940.1 1016 950.6 1024C967.4 1036.9 994.3 1056.2 1020 1068.4C1033.7 1074.9 1047 1079.5 1058.3 1080.1C1059.5 1080.1 1060.7 1080.1 1061.8 1080Z"
        fill="#7D1133" />
    <path
        d="M732.1 1080H0V925.2L46.8 917.3L64.8 800.7L66.6 788.7L92.9 911.4H183.6L258.5 950.2L270.2 891.5L271.6 884.4L272.9 878.2L278.7 896.7L296.6 953.5L308.8 914.8L316.7 889.8L320.4 878.2L331.7 928.6L341.6 972.8L389.3 973.3L379.8 982.7H471.9L495.3 1015.1L506.2 951.8L507.7 942.9L531.4 1027.6L547.3 1012.7C547.3 1012.7 554.7 1005.8 567 1008.9C575.6 1011.1 576.6 1017.5 576.6 1017.5L579.9 1033.5C579.9 1033.5 589.1 1027.3 605.2 1025C609.5 1024.4 614.3 1024 619.5 1024.2C624.8 1024.3 630.5 1024.9 636.6 1026.2C656.8 1030.4 674.1 1039.9 685.1 1047.3C693.3 1052.7 698 1057 698 1057L732.1 1080Z"
        fill="#3D1D37" />
    <path opacity="0.15"
        d="M1920 444.8V656.9L1911.2 662.2L1904.4 666.3L1856.3 695.2L1839.9 705.1L1794.1 732.7L1789 735.8L1786.1 737.6L1781.9 740.1L1773.8 745L1757.6 754.8L1754.1 756.9L1709 784.1L1554.7 877L1512.7 902.3L1508.4 902.5C1508.3 902.5 1508.1 902.5 1508 902.5L1467.9 904.3L1456.6 904.8L1309.8 911.5L1265.7 859.7L1251.3 842.8L1236.3 825.2L1187.9 768.4C1187.9 768.4 1194 763.2 1204.5 753.7C1225.2 735.2 1263.1 700.2 1306.4 656.2C1316.1 646.3 1326.1 636 1336.3 625.3C1340.7 620.6 1345.2 615.8 1349.7 611C1350.6 610 1351.5 609.1 1352.4 608.1C1437.1 516.5 1590 611.8 1632.8 603.6C1640.3 602.2 1646.9 597.9 1653.1 591.7C1653.5 591.3 1653.9 590.9 1654.3 590.4C1657.8 586.7 1661.1 582.5 1664.4 577.7C1671.1 568 1677.6 556.2 1684.5 543.5C1685.2 542.2 1685.9 540.9 1686.7 539.6C1688.7 535.9 1690.8 532.2 1692.9 528.4C1704.3 508.1 1717.5 486.8 1734.9 468.4C1737.3 465.9 1739.8 463.4 1742.3 461C1743.2 460.1 1744.1 459.3 1745.1 458.4C1748.1 455.7 1751.2 453.1 1754.4 450.6C1756.2 449.2 1758 447.9 1759.9 446.6C1762.9 444.5 1766 442.7 1769.2 441.1C1772.6 439.4 1776.1 437.9 1779.8 436.7C1782 436 1784.2 435.3 1786.5 434.7C1787 434.6 1787.6 434.4 1788.1 434.3C1821.7 426.3 1862.7 434.5 1897.4 440.9C1905 442.3 1912.8 443.8 1920 444.8Z"
        fill="#DB6BA8" />
    <path
        d="M1920 552.6V1080.6L1874.9 1081.3L1875.3 1080H1300L1304.4 1027.4L1308.5 978.9L1309.6 965.5L1295.9 935.1L1291.4 925.1L1272 882.1L1233.4 852.6C1233.4 852.6 1241.3 848.2 1251.1 842.6C1255.6 840 1260.6 837.2 1265.4 834.4C1270.9 831.2 1276.1 828.1 1280.4 825.5C1285.5 822.4 1289.2 820 1289.8 819.2C1290.9 817.7 1299.4 813 1310.5 808.1C1324.3 802.1 1342.2 795.9 1354.7 795.9C1377.3 795.9 1402 754.9 1402 754.9C1402 754.9 1434.5 711.8 1433.1 701.2C1433.1 701.2 1435 697.8 1438.2 693.1C1445.3 682.7 1458.8 665.9 1471.9 664.4L1502.3 660.9L1505.3 659.9L1519.2 655.3H1543.9L1560.9 660.9C1560.9 660.9 1583.5 656 1602.6 665.8C1602.6 665.8 1622.5 667 1628.8 671.7C1635.2 676.5 1645.2 666.7 1645.2 666.7C1645.2 666.7 1651 645.5 1659.5 629.1C1660.9 626.4 1662.4 623.9 1663.9 621.6C1664 621.4 1664.1 621.3 1664.2 621.2C1668.2 615.2 1672.7 610.9 1677.3 610.4H1696.1C1696.1 610.4 1696.5 609.8 1697.2 608.7C1698 607.4 1699.4 605.5 1701 603.1C1705.2 597.1 1711.6 588.1 1718.2 580C1723.9 573 1729.8 566.5 1734.7 563C1736.1 562 1737.4 561.2 1738.5 560.7C1738.9 560.5 1739.3 560.4 1739.7 560.3C1742.5 559.7 1747.7 560.8 1754.1 563C1758.5 564.5 1763.5 566.5 1768.7 568.8C1772.4 570.4 1776.2 572.1 1779.9 573.9C1782 574.9 1784 575.9 1786.1 576.8C1786.3 576.9 1786.6 577 1786.8 577.1C1802.7 584.8 1816.3 592.3 1816.3 592.3C1816.3 592.3 1834.8 598.3 1863.2 560.1C1863.2 560.1 1870.4 540.9 1897.6 551L1917.9 552.2L1920 552.6Z"
        fill="#9A1B46" />
    <path
        d="M1920 839.2V1080.6L1874.9 1081.3L1875.3 1080H1300H1305H1295.1H1299.9H1105.7C1117.8 1079.3 1151.4 1073.5 1195.8 1033.6C1208.8 1022 1221.7 1012.8 1234 1005.6C1275 981.5 1308.3 978.9 1308.3 978.9L1318.4 975.3C1318.4 975.3 1322.5 967.7 1332.7 966.7C1343.1 965.7 1347.5 971.7 1347.5 971.7L1386.4 962.4L1384.4 957.6L1412.1 951.1L1416.8 921.2L1425.4 946.4L1442.3 913.3L1467.6 904L1468.4 903.7L1503 891L1511.5 844.2L1529.9 886.8L1541.8 839.1L1554.6 876.7L1555.4 879.1L1558 886.8L1562.2 886.3L1577.8 884.6L1572.9 880.8L1621.7 873.2L1629.3 861.3L1650.9 860.2L1670.3 866.3L1674.7 838.4L1683.8 866.7L1710.4 866.3C1710.4 866.3 1709.2 850.5 1723.8 839C1738.4 827.4 1770.8 836.2 1770.8 836.2L1790.2 849.5L1795.2 813.7L1798.8 787.9L1812.8 819.8L1825.8 849.5L1828.6 825.3L1829.9 814.5L1831.3 802.3L1834.5 775.2L1846.2 804L1859.2 835.9L1864.7 849.5L1886.5 845.4L1920 839.2Z"
        fill="#7D1133" />
    <path
        d="M316.7 889.7L334.7 978.4C334.7 978.4 338.2 977 340.4 977.8C342.6 978.5 346.9 972.7 346.9 972.7L341.7 972.6L320.5 878.1L316.7 889.7Z"
        fill="#4B1F36" />
    <path d="M271.6 884.4L295.9 956.4L296.6 953.4L272.8 878.1L271.6 884.4Z" fill="#4B1F36" />
    <path d="M506.3 951.6C506.3 951.6 527.2 1016.9 526.9 1031.3L532.3 1029.7L531.6 1027.4L507.9 942.7L506.3 951.6Z"
        fill="#4B1F36" />
    <path d="M558.9 1011.9C558.9 1011.9 569.7 1004.4 575.4 1017.3L573.6 1020.3L558.9 1015V1011.9Z" fill="#4B1F36" />
    <path d="M362.1 850.2L369.1 803.9L390.5 890L362.1 850.2Z" fill="#5B1830" />
    <path d="M5.5 707.4L11.9 681L21.4 732.3L5.5 707.4Z" fill="#5B1830" />
    <path d="M522.3 957.7L541.4 877.4L556.1 986L522.3 957.7Z" fill="#5B1830" />
    <path d="M64.7 800.6L91.8 916.8L92.8 911.3L66.6 788.6L64.7 800.6Z" fill="#4B1F36" />
    <path
        d="M1344 110.1C1344.83 110.1 1345.5 109.428 1345.5 108.6C1345.5 107.772 1344.83 107.1 1344 107.1C1343.17 107.1 1342.5 107.772 1342.5 108.6C1342.5 109.428 1343.17 110.1 1344 110.1Z"
        fill="white" />
    <path
        d="M453 92.2C454.105 92.2 455 91.3046 455 90.2C455 89.0954 454.105 88.2 453 88.2C451.895 88.2 451 89.0954 451 90.2C451 91.3046 451.895 92.2 453 92.2Z"
        fill="white" />
    <path
        d="M1052.3 59C1053.4 59 1054.3 58.1046 1054.3 57C1054.3 55.8954 1053.4 55 1052.3 55C1051.2 55 1050.3 55.8954 1050.3 57C1050.3 58.1046 1051.2 59 1052.3 59Z"
        fill="white" />
    <path
        d="M637.7 377C638.805 377 639.7 376.105 639.7 375C639.7 373.895 638.805 373 637.7 373C636.595 373 635.7 373.895 635.7 375C635.7 376.105 636.595 377 637.7 377Z"
        fill="white" />
    <path
        d="M453 253.5C454.105 253.5 455 252.605 455 251.5C455 250.395 454.105 249.5 453 249.5C451.895 249.5 451 250.395 451 251.5C451 252.605 451.895 253.5 453 253.5Z"
        fill="white" />
    <path
        d="M1446.4 148.2C1447.5 148.2 1448.4 147.305 1448.4 146.2C1448.4 145.095 1447.5 144.2 1446.4 144.2C1445.3 144.2 1444.4 145.095 1444.4 146.2C1444.4 147.305 1445.3 148.2 1446.4 148.2Z"
        fill="white" />
    <path
        d="M576.2 59C577.305 59 578.2 58.1046 578.2 57C578.2 55.8954 577.305 55 576.2 55C575.095 55 574.2 55.8954 574.2 57C574.2 58.1046 575.095 59 576.2 59Z"
        fill="white" />
    <path
        d="M862.4 46.9C863.505 46.9 864.4 46.0046 864.4 44.9C864.4 43.7954 863.505 42.9 862.4 42.9C861.295 42.9 860.4 43.7954 860.4 44.9C860.4 46.0046 861.295 46.9 862.4 46.9Z"
        fill="white" />
    <path
        d="M229.3 69.6C230.405 69.6 231.3 68.7046 231.3 67.6C231.3 66.4954 230.405 65.6 229.3 65.6C228.195 65.6 227.3 66.4954 227.3 67.6C227.3 68.7046 228.195 69.6 229.3 69.6Z"
        fill="white" />
    <path
        d="M363.4 35C364.505 35 365.4 34.1046 365.4 33C365.4 31.8954 364.505 31 363.4 31C362.295 31 361.4 31.8954 361.4 33C361.4 34.1046 362.295 35 363.4 35Z"
        fill="white" />
    <path
        d="M295.4 221.9C296.505 221.9 297.4 221.005 297.4 219.9C297.4 218.795 296.505 217.9 295.4 217.9C294.295 217.9 293.4 218.795 293.4 219.9C293.4 221.005 294.295 221.9 295.4 221.9Z"
        fill="white" />
    <path
        d="M733.1 82.9C734.205 82.9 735.1 82.0046 735.1 80.9C735.1 79.7954 734.205 78.9 733.1 78.9C731.995 78.9 731.1 79.7954 731.1 80.9C731.1 82.0046 731.995 82.9 733.1 82.9Z"
        fill="white" />
    <path
        d="M1625.9 53.4C1627 53.4 1627.9 52.5046 1627.9 51.4C1627.9 50.2954 1627 49.4 1625.9 49.4C1624.8 49.4 1623.9 50.2954 1623.9 51.4C1623.9 52.5046 1624.8 53.4 1625.9 53.4Z"
        fill="white" />
    <path
        d="M1878.6 72.9C1879.7 72.9 1880.6 72.0046 1880.6 70.9C1880.6 69.7954 1879.7 68.9 1878.6 68.9C1877.5 68.9 1876.6 69.7954 1876.6 70.9C1876.6 72.0046 1877.5 72.9 1878.6 72.9Z"
        fill="white" />
    <path
        d="M1826.8 170.4C1827.9 170.4 1828.8 169.505 1828.8 168.4C1828.8 167.295 1827.9 166.4 1826.8 166.4C1825.7 166.4 1824.8 167.295 1824.8 168.4C1824.8 169.505 1825.7 170.4 1826.8 170.4Z"
        fill="white" />
    <path d="M353.5 156L354.4 154.4L355.3 156L356.9 156.9L355.3 157.8L354.4 159.4L353.5 157.8L351.9 156.9L353.5 156Z"
        fill="#FCF5F1" />
    <path d="M1360.2 42L1361.1 40.4L1362 42L1363.6 42.9L1362 43.8L1361.1 45.4L1360.2 43.8L1358.6 42.9L1360.2 42Z"
        fill="#FCF5F1" />
    <path
        d="M1451.9 211L1452.8 209.4L1453.6 211L1455.3 211.9L1453.6 212.8L1452.8 214.4L1451.9 212.8L1450.3 211.9L1451.9 211Z"
        fill="#FCF5F1" />
    <path
        d="M1892.8 183.2L1893.7 181.5L1894.5 183.2L1896.2 184L1894.5 184.9L1893.7 186.5L1892.8 184.9L1891.2 184L1892.8 183.2Z"
        fill="#FCF5F1" />
    <path d="M1253.2 46L1254.1 44.4L1255 46L1256.6 46.9L1255 47.8L1254.1 49.4L1253.2 47.8L1251.6 46.9L1253.2 46Z"
        fill="#FCF5F1" />
    <path d="M492.4 172.3L493.3 170.7L494.2 172.3L495.8 173.2L494.2 174L493.3 175.7L492.4 174L490.8 173.2L492.4 172.3Z"
        fill="#FCF5F1" />
    <path d="M155.5 183L156.4 181.4L157.2 183L158.9 183.9L157.2 184.8L156.4 186.4L155.5 184.8L153.9 183.9L155.5 183Z"
        fill="#FCF5F1" />
    <defs>
        <linearGradient id="paint0_linear" x1="581.706" y1="1351.25" x2="1338.29" y2="-271.254"
            gradientUnits="userSpaceOnUse">
            <stop offset="0.2598" stop-color="#F8DACB" stop-opacity="0.72" />
            <stop offset="0.7458" stop-color="#F18BA9" />
            <stop offset="1" stop-color="#F081A4" />
        </linearGradient>
    </defs>
</svg>