<svg viewBox="0 0 482 377" fill="none" xmlns="http://www.w3.org/2000/svg">
    <path
        d="M449.44 357.79C449.44 357.79 346.28 350.5 275.89 350.5C246.89 350.5 199.03 351.95 152.89 353.65C147.92 353.83 140 342 140 342C140 342 125.25 354.68 119 354.94C67.22 356.94 24.76 358.94 24.76 358.94C24.76 358.94 36.89 275.2 34.47 199.94C33.34 164.74 32.65 121.54 28.4 85.85C25.5806 61.7914 21.5286 37.8933 16.26 14.25C16.26 14.25 63.59 23.12 118.26 27.6C163.66 31.31 213.98 30.68 248.12 31.24C281.39 31.78 327.21 34.88 368.26 33.67L375.38 33.44C379.64 33.32 388.9 59.15 388.9 59.15C388.9 59.15 397.33 32.45 401.9 32.15C437.8 29.9 464.15 26.42 464.15 26.42C464.15 26.42 445.95 172.05 445.95 219.42C445.95 242.07 446.78 274.72 447.66 302.62C447.74 305.37 413.18 309.23 413.18 309.23C413.18 309.23 448.09 316.23 448.18 318.94C448.78 341.43 449.44 357.79 449.44 357.79Z"
        fill="#9D8A71" />
    <path
        d="M451.41 356.35C451.41 356.35 348.25 349.07 277.86 349.07C248.86 349.07 201 350.51 154.86 352.21C149.93 352.39 141.97 340.57 141.97 340.57C141.97 340.57 127.21 353.25 120.91 353.51C69.14 355.51 26.68 357.51 26.68 357.51C26.68 357.51 38.81 273.77 36.39 198.51C35.26 163.31 34.56 120.11 30.32 84.42C27.4997 60.3615 23.4477 36.4635 18.18 12.82C18.18 12.82 65.51 21.69 120.13 26.17C165.53 29.88 215.84 29.25 249.98 29.81C283.26 30.35 329.08 33.45 370.13 32.24L377.24 32.01C381.5 31.89 390.76 57.72 390.76 57.72C390.76 57.72 399.2 31.03 403.76 30.72C439.62 28.51 466 25 466 25C466 25 447.79 170.63 447.79 218C447.79 240.65 448.63 273.3 449.51 301.2C449.59 303.95 415.03 307.81 415.03 307.81C415.03 307.81 449.94 314.81 450.03 317.52C450.75 340 451.41 356.35 451.41 356.35Z"
        fill="#C0A68B" />
    <path
        d="M423.49 11.68C423.49 11.68 428.35 27.45 436.84 35.95C445.33 44.45 458.69 59 458.69 59L472 73.57L476.85 79.64L481.71 80.85L476.85 83.28L473.21 82.07L470.78 77.21L464.72 69.93L455.01 60.22L445.3 50.51L439.23 44.45L433.16 37.16L429.52 32.31L418.6 22.6L423.45 21.39L423.49 11.68Z"
        fill="#977751" />
    <path
        d="M0.539978 75.42V73L23.6 51.15L45.45 29.31L61.22 14.75L68.63 9.38L73.48 0.890015L74.57 7.46002H80.64C75.9408 9.88149 71.4722 12.7266 67.29 15.96C61.22 20.81 52.73 28.1 52.73 28.1L41.81 37.8L35.74 45.09L29.67 49.94L21.18 59.65L11.47 76.65L8.99998 75.42L13.85 64.49L0.539978 75.42Z"
        fill="#977751" />
    <path
        d="M13.89 313.29L16.32 316.93L21.18 319.36L27.24 324.21L33.31 331.49L40.59 338.77L45.45 343.63L51.52 349.7L55.16 353.34L60.01 358.19L64.87 361.83L69.72 367.9L73.36 372.76L75.79 376.4L78.22 375.18L77 371.54L73.36 366.69L69.72 361.83L56.37 348.48L44.23 337.56L36.95 329.06L30.88 321.93L27.24 318.14C27.24 318.14 24.82 312.07 24.82 308.43L22.39 309.65L23.6 315.71L16.32 312.07L13.89 313.29Z"
        fill="#977751" />
    <path
        d="M407 375.35C407 375.35 413.94 359.35 421.22 353.26C426.371 348.749 431.101 343.779 435.35 338.41L450 323.58L457.91 314.7L466.41 301.35L468.84 302.56L462.77 313.48L465.2 312.27L462.77 317.12L457.91 320.76L451.85 326.83L446.51 331.69L438.64 339.99L433.64 346.23L423.93 355.93C423.93 355.93 419.08 360.79 417.86 363.22C416.64 365.65 413.01 371.71 413.01 371.71L411.79 376.57L407 375.35Z"
        fill="#977751" />
</svg>