<svg width="355" height="358" viewBox="0 0 355 358" fill="none" xmlns="http://www.w3.org/2000/svg">
<path d="M353.93 180.5C353.93 214.33 345.67 245.96 329.2 272.85C327.11 276.28 302.96 271.52 302.96 271.52C302.96 271.52 317.82 289.37 315.27 292.52C298.672 312.902 277.738 329.328 253.992 340.602C230.246 351.875 204.286 357.713 178 357.69C119.08 357.69 67.74 328.64 35.7 284.34C33.53 281.34 33.14 277.05 31.15 273.95C29.04 270.61 25.35 268.4 23.44 264.95C9.27107 239.018 1.51177 210.072 0.809998 180.53C5.66 140.48 14.52 102.35 37.59 72.43C93.04 28.82 122.17 15.43 178 3.34C256.08 3.34 318.23 53.34 341.84 123.49C345.1 133.2 342.71 147.13 344.26 157.49C345.52 166.12 353.93 171.5 353.93 180.5Z" fill="#847762"/>
<path d="M354.77 178.1C354.77 211.93 346.51 243.56 330.04 270.45C327.95 273.88 303.8 269.12 303.8 269.12C303.8 269.12 318.66 286.97 316.11 290.12C299.507 310.508 278.567 326.936 254.814 338.21C231.061 349.484 205.093 355.319 178.8 355.29C119.88 355.29 68.54 326.29 36.5 281.94C34.33 278.94 33.94 274.65 31.95 271.55C29.84 268.21 26.15 266 24.24 262.55C10.0711 236.618 2.31176 207.672 1.60999 178.13C6.45999 138.08 15.32 99.95 38.39 70.03C93.84 26.42 122.97 13.03 178.8 0.940002C256.88 0.940002 319.03 50.94 342.64 121.09C345.9 130.8 343.51 144.73 345.06 155.09C346.36 163.72 354.77 169.1 354.77 178.1Z" fill="#F6EDDC"/>
<path d="M260.05 80.12C238.1 60.57 210.05 47.91 179.52 49.04C146.75 50.25 121.26 64.82 93.52 82.48C64.39 100.97 52.13 139.26 52.13 176.48C52.13 246.87 118.88 303.91 179.57 303.91C243.89 303.91 307 246.91 307 176.48C307 146.76 292.74 114.26 269.68 89.48C268.89 88.62 271.8 78.15 271.8 78.15C271.8 78.15 260.83 80.84 260.05 80.12Z" fill="#888785"/>
<path d="M259.35 81.77C237.35 62.22 209.35 49.56 178.81 50.69C146.04 51.9 120.56 66.47 92.76 84.13C63.64 102.62 51.38 140.91 51.38 178.13C51.38 248.52 118.13 305.56 178.81 305.56C243.13 305.56 306.24 248.56 306.24 178.13C306.24 148.41 291.98 115.91 268.92 91.13C268.13 90.27 271.05 79.8 271.05 79.8C271.05 79.8 260.12 82.49 259.35 81.77Z" fill="white"/>
</svg>
