<svg width="100%" height="100%" viewBox="0 0 789 789" fill="none" xmlns="http://www.w3.org/2000/svg">
    <path opacity="0.34"
        d="M394.2 645.2C533.431 645.2 646.3 532.331 646.3 393.1C646.3 253.869 533.431 141 394.2 141C254.969 141 142.1 253.869 142.1 393.1C142.1 532.331 254.969 645.2 394.2 645.2Z"
        fill="#FCF5F1" />
    <path opacity="0.2"
        d="M393.4 679.6C551.63 679.6 679.9 551.33 679.9 393.1C679.9 234.87 551.63 106.6 393.4 106.6C235.171 106.6 106.9 234.87 106.9 393.1C106.9 551.33 235.171 679.6 393.4 679.6Z"
        fill="#FCF5F1" />
    <path opacity="0.15"
        d="M393.5 715C571.612 715 716 570.612 716 392.5C716 214.388 571.612 70 393.5 70C215.388 70 71 214.388 71 392.5C71 570.612 215.388 715 393.5 715Z"
        fill="#FCF5F1" />
    <path opacity="0.1"
        d="M394.5 751C591.39 751 751 591.39 751 394.5C751 197.61 591.39 38 394.5 38C197.61 38 38 197.61 38 394.5C38 591.39 197.61 751 394.5 751Z"
        fill="#FCF5F1" />
    <path opacity="0.05"
        d="M394.5 789C612.376 789 789 612.376 789 394.5C789 176.624 612.376 0 394.5 0C176.624 0 0 176.624 0 394.5C0 612.376 176.624 789 394.5 789Z"
        fill="#FCF5F1" />
    <path
        d="M394.2 613.5C515.095 613.5 613.1 515.495 613.1 394.6C613.1 273.705 515.095 175.7 394.2 175.7C273.305 175.7 175.3 273.705 175.3 394.6C175.3 515.495 273.305 613.5 394.2 613.5Z"
        fill="#FCF5F1" />
</svg>