<?xml version="1.0" encoding="utf-8"?>
<!-- Generator: Adobe Illustrator 23.0.1, SVG Export Plug-In . SVG Version: 6.00 Build 0)  -->
<svg version="1.1" id="Layer_1" xmlns="http://www.w3.org/2000/svg" xmlns:xlink="http://www.w3.org/1999/xlink" x="0px"
	y="0px" viewBox="0 0 1111 1080" style="enable-background:new 0 0 1111 1080;" xml:space="preserve">
	<style type="text/css">
		.st0 {
			fill: none;
			stroke: #FFFFFF;
			stroke-width: 0.5;
			stroke-miterlimit: 10;
		}

		.st1 {
			fill: #31152B;
		}

		.st2 {
			fill: none;
			stroke: #31152B;
			stroke-miterlimit: 10;
		}

		.st3 {
			fill: #7E1134;
		}

		.st4 {
			opacity: 0.41;
			fill: #343237;
			enable-background: new;
		}

		.st5 {
			opacity: 0.78;
			fill: #38242D;
			enable-background: new;
		}

		.st6 {
			fill: #3E1B31;
		}

		.st7 {
			opacity: 0.75;
			fill: #372632;
			enable-background: new;
		}

		.st8 {
			opacity: 0.84;
			fill: #343237;
			enable-background: new;
		}

		.st9 {
			opacity: 0.65;
			fill: #343237;
			enable-background: new;
		}
	</style>
	<path class="st0" d="M761.3,247.4v-86.6" />
	<path class="st1" d="M750.9,255.6c0-11,20.9-11.5,20.9,0S750.9,266.5,750.9,255.6z" />
	<path class="st2" d="M754.7,261.9c0,0-8.2,1.7-9,12" />
	<path class="st2" d="M752.4,258.6c0,0-9.8-1.6-10.4,13" />
	<path class="st2" d="M751.9,255.1c0,0-10.9-3.5-12.2,12" />
	<path class="st2" d="M752.7,251.2c0,0-8.2-6.7-13.4,7" />
	<path class="st2" d="M767.8,261.9c0,0,8.2,1.7,9,12" />
	<path class="st2" d="M770.1,258.6c0,0,9.8-1.6,10.4,13" />
	<path class="st2" d="M770.7,255.1c0,0,10.9-3.5,12.2,12" />
	<path class="st2" d="M769.8,251.2c0,0,8.2-6.7,13.4,7" />
	<path class="st1" d="M1043.4,810.6c0,0,2-3-2-5c-0.6-0.4-2-0.8-3.8-1.2c-3.6-0.7-9.1-1.3-14.9-1.7c-1.8-0.1-3.5-0.2-5.3-0.3
	c-9.4-0.5-18-0.8-18-0.8l-5-5c-2-17-10-27-10-27l0.5-18.2l0.3-11.2l0.2-7.3l1-34.2l-9-14v-1.9v-1.5l0.2-31l0.1-22.7l0.2-34.5
	l0.1-15.4l0.2-34v-4.5l0.3-41l0.3-39.2l0.2-24.5l0.2-37.7l0.9-131.3l1.3-197.8V0.2h-124v156.4c0,0,1,7-5,9s-55-9-55-9l-5-5l-69-8
	l-62-56l-20-27l10,29l66,67l75,11l62,25v265.9c0,0.1,0,0.2,0,0.3c-1.1,5.8-9,4.8-9,4.8l-26-8l-33-6l-32-3l-32-8l-9.5,0.7l-43.1,3.1
	l-71.2,5.1l-29.2,2.1l81.9,3.4l61.8,2.5h0.1l2.2,0.1l15.6,5.6l11.5,4.2l20,7.2l92,24.7l1,0.3v292l-18,14l-12-2h-10l-1.6-0.5
	l-3.7-1.2l-7.7-2.4l-2.9,0.6l-4.6,1l-0.5,0.1l-1,0.2l-41,3c-16-44.9-67.8-63.9-68-64c42.6,42.6,51.6,59.1,53.5,64.1
	c0.3,0.9-0.3,1.9-1.3,2l-18.2,0.9c-29-19-47,0-47,0l-27,1l-7-5l-11,2l-12,10h-19c-10-23-30-8-32,4l-1-3l-43.3,9.9l-39.7,9.1l-18-18
	l-9.6,2.7l-24.5,6.9l-53.9,15.3l-34,40l-13,14l-14,3l-31,5l-25,3l-24,5l14.5,14.6l0.5,0.4l-5,1l-29,12l-20,7l-11.5,5.4l-22.5,10.6
	l-7,0.9l-1,0.1l-12,7l-15,7l-8.7,0.6l-5.3,0.4l-13,7l12,5c-4.2,1.8-8.3,4-12.1,6.4c-13.6,8.6-23.9,19.6-23.9,19.6L22,1069l-21,11
	h182h33h25h28h798h14h30l0.4-269.4H1043.4z" />
	<path class="st3" d="M855.1,902.4h218l-120,26L855.1,902.4z" />
	<path class="st3" d="M936.1,956.4l-178-54c0,0-90-3-154,7s-199,47-199,47l-119,31l51,26l31-18h44l23,18l43,14h123c0,0,9-18,33-15
	s26,15,26,15l130-3l-24-20l84,1l65-2l-14-28L936.1,956.4z" />
	<path class="st1" d="M745.9,891c0,0,16.2,31.4-7.8,62.4c0,0,28-31.6,17-62.3C744.1,860.4,745.9,891,745.9,891z" />
	<path class="st1"
		d="M688.8,112.5l0.2-19.1c0,0,2.4,6.9,3.6,18.3c0.2,2,0.4,4.1,0.4,6.4C693.7,133.4,688.8,112.5,688.8,112.5z" />
	<path class="st1" d="M692.1,111.4c0,0,5-7,7-8s10-2,10-2s-4,9-6,10S692.1,111.4,692.1,111.4z" />
	<path class="st1" d="M690,98.6c0,0,3.8-6,5.5-7s8.9-2.8,8.9-2.8s-2.7,7.4-4.4,8.4C698.4,98.2,690,98.6,690,98.6z" />
	<path class="st1"
		d="M689.2,98.9c0,0-4-6.3-5.9-7.5c-1.9-1.2-9.9-3.6-9.9-3.6s2.7,7.6,4.6,8.8C679.8,97.8,689.2,98.9,689.2,98.9z" />
	<path class="st1"
		d="M629,89.5c0,0-4.8-3.9-4.8-6.1c0-2.2,3-8.9,3-8.9s2.8,9.2,2.6,10.4C629.7,86.2,629,89.5,629,89.5z" />
	<path class="st1"
		d="M628.7,89.5c0,0,2.6,5,1.7,6.7c-0.8,1.7-5.9,5.4-5.9,5.4s1.2-8.1,1.8-9C626.9,91.7,628.7,89.5,628.7,89.5z" />
	<path class="st1" d="M650.5,73.5l1.7-5.4c0,0-1.3-6.2-0.9-8.2c0.5-2,7.2-4.9,7.2-4.9s0.1,8.8-0.6,10.4c-0.7,1.6-4.4,2.9-4.5,2.9
	l-2.4,6.2L650.5,73.5z" />
	<path class="st1" d="M645.2,72.7l-5.3-1.7c0,0-6.2,1-8.2,0.5S627,65,627,65s8.8,0.2,10.4,0.9c1.6,0.7,2.8,4,2.8,4l6.1,2.3
	L645.2,72.7C645.3,72.7,645.2,72.7,645.2,72.7z" />
	<path class="st4" d="M960.1,166.4h17v593l-17.5-80.8L960.1,166.4z" />
	<path class="st5" d="M970.1,347.4l-25,68v361l26-163L970.1,347.4z" />
	<path class="st1"
		d="M770.6,755.9c0,0,9.6,12.1,16.9,26.7c2.7,5.4,5.2,11.2,6.6,16.8l5.1-1.1C799.2,798.2,796.6,776.9,770.6,755.9z" />
	<path class="st1" d="M787.6,782.9c0,0,0,12-10,7C770.6,785.9,782.6,778.9,787.6,782.9z" />
	<path class="st1" d="M780.6,771.1c0,0,0,13.6-10.3,8C763.1,774.5,775.4,766.5,780.6,771.1z" />
	<path class="st1" d="M793,781.9c0,0-4.4-10.3,9.9-11.3C813,770.3,800.7,782.6,793,781.9z" />
	<path class="st1" d="M785.6,770c0,0-3.9-9.1,8.5-9.9C803,760,792.3,770.8,785.6,770z" />
	<path class="st1" d="M777.7,761.6c0,0-8.5-10.8,3.7-13.1C790.3,747.3,784.9,761.8,777.7,761.6z" />
	<path class="st1" d="M773.6,760.8c0,0,0,11.1-12.8,6.5C751.9,763.6,767.2,757.1,773.6,760.8z" />
	<path class="st1"
		d="M830.1,769.1c0,0-6.9,9.3-12.2,20.4c-2,4.2-3.7,8.6-4.8,12.9l-3.7-0.9C809.5,801.5,811.4,785.2,830.1,769.1z" />
	<path class="st1" d="M817.8,789.8c0,0,0,9.2,7.2,5.4C830.1,792.1,821.4,786.7,817.8,789.8z" />
	<path class="st1" d="M822.9,780.7c0,0,0,10.4,7.4,6.1C835.5,783.4,826.6,777.3,822.9,780.7z" />
	<path class="st1" d="M814,789c0,0,3.1-7.9-7.1-8.6C799.5,780.2,808.4,789.6,814,789z" />
	<path class="st1" d="M819.2,780c0,0,2.8-7-6.1-7.6C806.8,772.3,814.4,780.5,819.2,780z" />
	<path class="st1" d="M824.9,773.5c0,0,6.1-8.3-2.6-10C815.9,762.5,819.8,773.6,824.9,773.5z" />
	<path class="st1" d="M827.9,772.9c0,0,0,8.5,9.2,5C843.5,775,832.5,770.1,827.9,772.9z" />
	<path class="st6" d="M853.9,165l33.2-11.1V0h-33.5L853.9,165z" />
	<path class="st6" d="M853.1,465.4l35,7v-259l-34-21L853.1,465.4z" />
	<path class="st6" d="M855.1,671.4l12.3,39.1l20.7,65.9v-259l-34-21L855.1,671.4z" />
	<path class="st6" d="M860.1,681.4l13.5,118l0.9-90.8L860.1,681.4z" />
	<path class="st7" d="M952.7,0h-45.1v472.4l46.5-64.4L952.7,0z" />
	<path class="st8" d="M940.6,0h-14v117.4l14.5-16L940.6,0z" />
	<path class="st9" d="M935.8,447.4l-10.2,15.9v103.5l10.5-16.3L935.8,447.4z" />
	<path class="st1" d="M599,449.5l43.9-2.4c0,0,14-74.9,9.6-80.6s-11.8-14.4-11.8-14.4s17.8-22-2.1-38.9c0,0,11.3-13.6,0.7-24.1
	c0,0-6.3-4.7-6.9,20.4c0,0-15.2-3.2-24,1.3l-5.8,4.3c0,0-15.2,15.8-3.2,33.2c0,0-9.2,14.5-10.9,20.6C587,375.1,599,449.5,599,449.5z
	" />
	<path class="st1"
		d="M609.1,309.8c0,0-1.6-18.8-7.9-20c-6.3-1.3-7.3,16.8,2.1,24.3C612.7,321.6,609.1,309.8,609.1,309.8z" />
	<path class="st1" d="M711.3,488l-11.3,0.4c0,0-5,3-9,4s-9-8-9-8s6-5,13-2l4.1,4h13L711.3,488z" />
	<path class="st1"
		d="M695.4,499.3c0,0-6.3,5.1-7.3,9.1c-1,4,3,13,3,13s9-7,9-9C700.1,510.4,695.4,499.3,695.4,499.3z" />
	<path class="st1" d="M706.8,493.7c0,0-5.7,7.7-5.7,9.7s7,10,7,10s5-10,5-12S706.8,493.7,706.8,493.7z" />
	<path class="st1" d="M742.1,465.4c0,0-34,21-47,34c0,0,12.9-6.2,26.3-13.1c14.6-7.5,29.8-15.9,29.4-18
	C750.1,464.4,742.1,465.4,742.1,465.4z" />
	<path class="st1" d="M721.1,486.4c0,0,5,2,7,5s-7,14-7,14l-5-10C716.1,495.4,719.1,487.4,721.1,486.4z" />
	<path class="st1" d="M717.3,478.8c0,0-2-3.7-5-5.2s-14,5.4-14,5.4l10,3.6C708.3,482.6,716.3,480.3,717.3,478.8z" />
	<path class="st1" d="M713.6,476.9l7.5,3.5L713.6,476.9z" />
	<path class="st1" d="M657.9,443c0,0-3.8-6.6-3.8-8.6s6-10,6-10s4,10,4,11S657.9,443,657.9,443z" />
	<path class="st1" d="M576,449.1c0,0-3.8-6.6-3.8-8.6s6-10,6-10s4,10,4,11S576,449.1,576,449.1z" />
	<path class="st1"
		d="M568.3,471c0,0-1.6-8.9-0.9-11.3c0.7-2.4,9-10.3,9-10.3s0.6,13,0.3,14.2C576.4,464.8,568.3,471,568.3,471z" />
	<path class="st1" d="M650,86.4l-26.2,3.3l27.3-0.3L650,86.4z" />
</svg>