<svg width="842" height="1010" viewBox="0 0 842 1010" fill="none" xmlns="http://www.w3.org/2000/svg">
<path d="M840.44 1009.45H694.64L694.27 978.45L675.13 1009.45L200.28 1003.54L34.28 1009.45L0 971.32V784.54C0 779.69 17.21 760.38 17.21 751.35C17.21 742.32 0 725.54 0 722.05C0 721.8 7.38 417.05 7.38 204.35C7.38 90.27 0 2.78 0 2.78L502.55 6.91L840.44 2.78V175L812.18 179.57L840.44 212.18L831.84 754.09L840.44 1009.45Z" fill="#686868"/>
<path d="M841.76 1006.68H696L695.63 975.68L676.49 1006.68L201.64 1000.77L35.64 1006.68L1.32001 968.55V781.77C1.32001 776.91 18.53 757.61 18.53 748.58C18.53 739.55 1.32001 722.76 1.32001 719.28C1.32001 719.02 8.70001 414.28 8.70001 201.57C8.70001 87.49 1.32001 0 1.32001 0L503.87 4.14L841.76 0V172.25L813.5 176.81L841.76 209.42L833.16 751.33L841.76 1006.68Z" fill="#F3DBAF"/>
<path d="M633.62 228.74C633.62 230.994 632.724 233.156 631.13 234.75C629.536 236.344 627.374 237.24 625.12 237.24C622.866 237.24 620.704 236.344 619.11 234.75C617.516 233.156 616.62 230.994 616.62 228.74C616.62 224.05 620.43 222.68 625.11 222.68C629.79 222.68 633.62 224.07 633.62 228.74Z" fill="#DDC9B0"/>
<path d="M643.33 272.43C643.33 276.43 641.33 279.72 637.26 279.72C635.375 279.65 633.59 278.852 632.281 277.493C630.971 276.135 630.24 274.322 630.24 272.435C630.24 270.548 630.971 268.735 632.281 267.376C633.59 266.018 635.375 265.22 637.26 265.15C641.35 265.15 643.33 268.43 643.33 272.43Z" fill="#DDC9B0"/>
<path d="M687 324.62C687 335.35 678.31 341.62 667.58 341.62C656.85 341.62 648.16 335.36 648.16 324.62C648.16 313.88 656.86 306.42 667.58 306.42C678.3 306.42 687 313.92 687 324.62Z" fill="#DDC9B0"/>
<path d="M705.22 324.62C705.253 325.437 705.121 326.253 704.831 327.017C704.541 327.782 704.1 328.481 703.533 329.07C702.967 329.66 702.287 330.13 701.535 330.45C700.782 330.771 699.973 330.936 699.155 330.936C698.337 330.936 697.528 330.771 696.775 330.45C696.023 330.13 695.343 329.66 694.777 329.07C694.21 328.481 693.769 327.782 693.479 327.017C693.189 326.253 693.057 325.437 693.09 324.62C693.09 321.27 695.81 319.77 699.15 319.77C702.49 319.77 705.22 321.3 705.22 324.62Z" fill="#DDC9B0"/>
<path d="M747.7 342.83C747.7 350.19 742.94 353.75 735.56 353.75C728.18 353.75 722.21 350.19 722.21 342.83C722.21 341.077 722.555 339.341 723.226 337.721C723.897 336.101 724.88 334.63 726.12 333.39C727.36 332.15 728.831 331.167 730.451 330.496C732.071 329.825 733.807 329.48 735.56 329.48C742.94 329.48 747.7 335.47 747.7 342.83Z" fill="#DDC9B0"/>
<path d="M656.68 122.58L631.19 121.36L299.87 111.65L258 111.05L241.62 111.65L234.52 105.6L262.86 107.41L365.41 110.44L574.15 116.51L657.89 117.71L656.68 122.58Z" fill="black"/>
</svg>
