<svg width="842" height="1010" viewBox="0 0 842 1010" fill="none" xmlns="http://www.w3.org/2000/svg">
    <g id="letterBack(2)">
        <path id="Vector"
            d="M1.32001 1009.45H147.12L147.49 978.45L166.63 1009.45L641.48 1003.54L807.48 1009.45L841.76 971.32V784.54C841.76 779.69 824.55 760.38 824.55 751.35C824.55 742.32 841.76 725.54 841.76 722.05C841.76 721.8 834.38 417.05 834.38 204.35C834.38 90.27 841.76 2.78 841.76 2.78L339.21 6.91L1.32001 2.78V175L29.58 179.57L1.32001 212.18L9.91998 754.09L1.32001 1009.45Z"
            fill="#686868" />
        <path id="Vector_2"
            d="M0 1006.68H145.76L146.13 975.68L165.27 1006.68L640.12 1000.77L806.12 1006.68L840.44 968.55V781.77C840.44 776.91 823.23 757.61 823.23 748.58C823.23 739.55 840.44 722.76 840.44 719.28C840.44 719.02 833.06 414.28 833.06 201.57C833.06 87.49 840.44 0 840.44 0L337.89 4.14L0 0V172.25L28.26 176.81L0 209.42L8.60004 751.33L0 1006.68Z"
            fill="#F3DBAF" />
        <g id="Group 1">
            <path id="Vector_3"
                d="M208.14 228.74C208.14 230.994 209.036 233.156 210.63 234.75C212.224 236.344 214.386 237.24 216.64 237.24C218.894 237.24 221.056 236.344 222.65 234.75C224.244 233.156 225.14 230.994 225.14 228.74C225.14 224.05 221.33 222.68 216.65 222.68C211.97 222.68 208.14 224.07 208.14 228.74Z"
                fill="#DDC9B0" />
            <path id="Vector_4"
                d="M198.43 272.43C198.43 276.43 200.43 279.72 204.5 279.72C206.385 279.65 208.17 278.852 209.479 277.493C210.789 276.135 211.52 274.322 211.52 272.435C211.52 270.548 210.789 268.735 209.479 267.376C208.17 266.018 206.385 265.22 204.5 265.15C200.41 265.15 198.43 268.43 198.43 272.43Z"
                fill="#DDC9B0" />
            <path id="Vector_5"
                d="M154.76 324.62C154.76 335.35 163.45 341.62 174.18 341.62C184.91 341.62 193.6 335.36 193.6 324.62C193.6 313.88 184.9 306.42 174.18 306.42C163.46 306.42 154.76 313.92 154.76 324.62Z"
                fill="#DDC9B0" />
            <path id="Vector_6"
                d="M136.54 324.62C136.507 325.437 136.639 326.253 136.929 327.017C137.219 327.782 137.66 328.481 138.227 329.07C138.793 329.66 139.473 330.13 140.225 330.45C140.978 330.771 141.787 330.936 142.605 330.936C143.423 330.936 144.232 330.771 144.985 330.45C145.737 330.13 146.417 329.66 146.983 329.07C147.55 328.481 147.991 327.782 148.281 327.017C148.571 326.253 148.703 325.437 148.67 324.62C148.67 321.27 145.95 319.77 142.61 319.77C139.27 319.77 136.54 321.3 136.54 324.62Z"
                fill="#DDC9B0" />
            <path id="Vector_7"
                d="M94.0601 342.83C94.0601 350.19 98.8201 353.75 106.2 353.75C113.58 353.75 119.55 350.19 119.55 342.83C119.55 341.077 119.205 339.341 118.534 337.721C117.863 336.101 116.88 334.63 115.64 333.39C114.4 332.15 112.929 331.167 111.309 330.496C109.689 329.825 107.953 329.48 106.2 329.48C98.8201 329.48 94.0601 335.47 94.0601 342.83Z"
                fill="#DDC9B0" />
        </g>
    </g>
</svg>